<svg width="217" height="64" viewBox="0 0 217 64" fill="none" xmlns="http://www.w3.org/2000/svg">
<g clip-path="url(#clip0_207_33)">
<path opacity="0.2" d="M56 57.0017C56.0006 57.9209 55.3803 58.8311 54.1744 59.6804C52.9686 60.5296 51.2009 61.3013 48.9722 61.9513C46.7435 62.6013 44.0976 63.117 41.1855 63.4688C38.2734 63.8206 35.1521 64.0016 32 64.0016C28.8479 64.0016 25.7266 63.8206 22.8145 63.4688C19.9024 63.117 17.2565 62.6013 15.0278 61.9513C12.7991 61.3013 11.0314 60.5296 9.82556 59.6804C8.61972 58.8311 7.99939 57.9209 8 57.0017C7.99939 56.0825 8.61972 55.1723 9.82556 54.323C11.0314 53.4738 12.7991 52.7021 15.0278 52.0521C17.2565 51.4021 19.9024 50.8864 22.8145 50.5346C25.7266 50.1828 28.8479 50.0018 32 50.0018C35.1521 50.0018 38.2734 50.1828 41.1855 50.5346C44.0976 50.8864 46.7435 51.4021 48.9722 52.0521C51.2009 52.7021 52.9686 53.4738 54.1744 54.323C55.3803 55.1723 56.0006 56.0825 56 57.0017Z" fill="url(#paint0_radial_207_33)"/>
<path opacity="0.4" d="M48 59.0017C48.0005 59.6583 47.5871 60.3084 46.7832 60.9151C45.9794 61.5217 44.8009 62.0729 43.3151 62.5372C41.8293 63.0016 40.0653 63.3699 38.1239 63.6212C36.1824 63.8725 34.1015 64.0018 32 64.0018C29.8985 64.0018 27.8176 63.8725 25.8761 63.6212C23.9347 63.3699 22.1707 63.0016 20.6849 62.5372C19.1991 62.0729 18.0206 61.5217 17.2168 60.9151C16.4129 60.3084 15.9995 59.6583 16 59.0017C15.9995 58.3451 16.4129 57.695 17.2168 57.0883C18.0206 56.4817 19.1991 55.9305 20.6849 55.4661C22.1707 55.0018 23.9347 54.6335 25.8761 54.3822C27.8176 54.1309 29.8985 54.0016 32 54.0016C34.1015 54.0016 36.1824 54.1309 38.1239 54.3822C40.0653 54.6335 41.8293 55.0018 43.3151 55.4661C44.8009 55.9305 45.9794 56.4817 46.7832 57.0883C47.5871 57.695 48.0005 58.3451 48 59.0017Z" fill="url(#paint1_radial_207_33)"/>
<path d="M32 2.5C15.7229 2.5 2.5 15.7229 2.5 32C2.5 48.2771 15.7229 61.5 32 61.5C48.2771 61.5 61.5 48.2771 61.5 32C61.5 15.7229 48.2771 2.5 32 2.5Z" fill="url(#paint2_linear_207_33)"/>
<path opacity="0.5" d="M32 2.5C15.7229 2.5 2.5 15.7229 2.5 32C2.5 48.2771 15.7229 61.5 32 61.5C48.2771 61.5 61.5 48.2771 61.5 32C61.5 15.7229 48.2771 2.5 32 2.5Z" stroke="#007367" stroke-linecap="round" stroke-linejoin="round"/>
<path opacity="0.5" d="M60.5 32C60.5 47.7401 47.7401 60.5 32 60.5C16.2599 60.5 3.5 47.7401 3.5 32C3.5 16.2599 16.2599 3.5 32 3.5C47.7401 3.5 60.5 16.2599 60.5 32Z" stroke="url(#paint3_linear_207_33)" stroke-linecap="round" stroke-linejoin="round"/>
<path opacity="0.05" d="M31.9998 15C25.1073 15 19.5123 20.3726 19.5123 27C19.5123 33.6274 25.1073 39 31.9998 39C38.8923 39 44.4873 33.6274 44.4873 27C44.4873 20.3726 38.8923 15 31.9998 15V15ZM27.4623 42.0464C21.8977 42.0464 17.1038 45.6915 14.6748 50.5C19.0119 55.1261 25.1582 58 31.9998 58C38.8414 58 44.9877 55.1261 49.3248 50.5C46.8958 45.6915 42.1019 42.0464 36.5373 42.0464H27.4623Z" fill="#007367" stroke="#007367" stroke-width="2" stroke-linejoin="round"/>
<path opacity="0.15" d="M31.9998 15C25.1073 15 19.5123 20.3726 19.5123 27C19.5123 33.6274 25.1073 39 31.9998 39C38.8923 39 44.4873 33.6274 44.4873 27C44.4873 20.3726 38.8923 15 31.9998 15V15ZM27.4623 42.0464C21.8977 42.0464 17.1038 45.6915 14.6748 50.5C19.0119 55.1261 25.1582 58 31.9998 58C38.8414 58 44.9877 55.1261 49.3248 50.5C46.8958 45.6915 42.1019 42.0464 36.5373 42.0464H27.4623Z" fill="#007367"/>
<path d="M31.9998 14C25.1073 14 19.5123 19.3726 19.5123 26C19.5123 32.6274 25.1073 38 31.9998 38C38.8923 38 44.4873 32.6274 44.4873 26C44.4873 19.3726 38.8923 14 31.9998 14V14ZM27.4623 41.0464C21.8977 41.0464 17.1038 44.6915 14.6748 49.5C19.0119 54.1261 25.1582 57 31.9998 57C38.8414 57 44.9877 54.1261 49.3248 49.5C46.8958 44.6915 42.1019 41.0464 36.5373 41.0464H27.4623Z" fill="white"/>
</g>
<path d="M74.2784 28V16.3636H76.0341V26.4886H81.3068V28H74.2784ZM83.1733 28V19.2727H84.8722V28H83.1733ZM84.0312 17.9261C83.7358 17.9261 83.482 17.8277 83.2699 17.6307C83.0616 17.4299 82.9574 17.1913 82.9574 16.9148C82.9574 16.6345 83.0616 16.3958 83.2699 16.1989C83.482 15.9981 83.7358 15.8977 84.0312 15.8977C84.3267 15.8977 84.5786 15.9981 84.7869 16.1989C84.9991 16.3958 85.1051 16.6345 85.1051 16.9148C85.1051 17.1913 84.9991 17.4299 84.7869 17.6307C84.5786 17.8277 84.3267 17.9261 84.0312 17.9261ZM94.6236 19.2727L91.4588 28H89.6406L86.4702 19.2727H88.294L90.5043 25.9886H90.5952L92.7997 19.2727H94.6236ZM99.6847 28.1761C98.8248 28.1761 98.0843 27.9924 97.4631 27.625C96.8456 27.2538 96.3684 26.733 96.0312 26.0625C95.6979 25.3883 95.5312 24.5985 95.5312 23.6932C95.5312 22.7992 95.6979 22.0114 96.0312 21.3295C96.3684 20.6477 96.8381 20.1155 97.4403 19.733C98.0464 19.3504 98.7547 19.1591 99.5653 19.1591C100.058 19.1591 100.535 19.2405 100.997 19.4034C101.459 19.5663 101.874 19.822 102.241 20.1705C102.609 20.5189 102.899 20.9716 103.111 21.5284C103.323 22.0814 103.429 22.7538 103.429 23.5455V24.1477H96.4915V22.875H101.764C101.764 22.428 101.673 22.0322 101.491 21.6875C101.31 21.339 101.054 21.0644 100.724 20.8636C100.399 20.6629 100.016 20.5625 99.5767 20.5625C99.0994 20.5625 98.6828 20.6799 98.3267 20.9148C97.9744 21.1458 97.7017 21.4489 97.5085 21.8239C97.3191 22.1951 97.2244 22.5985 97.2244 23.0341V24.0284C97.2244 24.6117 97.3267 25.108 97.5312 25.517C97.7396 25.9261 98.0294 26.2386 98.4006 26.4545C98.7718 26.6667 99.2055 26.7727 99.7017 26.7727C100.024 26.7727 100.317 26.7273 100.582 26.6364C100.848 26.5417 101.077 26.4015 101.27 26.2159C101.463 26.0303 101.611 25.8011 101.713 25.5284L103.321 25.8182C103.192 26.2917 102.961 26.7064 102.628 27.0625C102.298 27.4148 101.884 27.6894 101.384 27.8864C100.887 28.0795 100.321 28.1761 99.6847 28.1761ZM116.031 19.4205C115.971 18.8826 115.721 18.4659 115.281 18.1705C114.842 17.8712 114.289 17.7216 113.622 17.7216C113.145 17.7216 112.732 17.7973 112.384 17.9489C112.035 18.0966 111.764 18.3011 111.571 18.5625C111.382 18.8201 111.287 19.1136 111.287 19.4432C111.287 19.7197 111.351 19.9583 111.48 20.1591C111.613 20.3598 111.785 20.5284 111.997 20.6648C112.213 20.7973 112.444 20.9091 112.69 21C112.937 21.0871 113.173 21.1591 113.401 21.2159L114.537 21.5114C114.908 21.6023 115.289 21.7254 115.679 21.8807C116.069 22.036 116.431 22.2405 116.764 22.4943C117.098 22.7481 117.366 23.0625 117.571 23.4375C117.779 23.8125 117.884 24.2614 117.884 24.7841C117.884 25.4432 117.713 26.0284 117.372 26.5398C117.035 27.0511 116.545 27.4545 115.901 27.75C115.26 28.0455 114.486 28.1932 113.577 28.1932C112.705 28.1932 111.952 28.0549 111.315 27.7784C110.679 27.5019 110.181 27.1098 109.821 26.6023C109.461 26.0909 109.262 25.4848 109.224 24.7841H110.986C111.02 25.2045 111.156 25.5549 111.395 25.8352C111.637 26.1117 111.946 26.3182 112.321 26.4545C112.7 26.5871 113.115 26.6534 113.565 26.6534C114.062 26.6534 114.503 26.5758 114.889 26.4205C115.279 26.2614 115.586 26.0417 115.81 25.7614C116.033 25.4773 116.145 25.1458 116.145 24.767C116.145 24.4223 116.046 24.1402 115.849 23.9205C115.656 23.7008 115.393 23.5189 115.06 23.375C114.73 23.2311 114.357 23.1042 113.94 22.9943L112.565 22.6193C111.634 22.3655 110.895 21.9924 110.349 21.5C109.808 21.0076 109.537 20.3561 109.537 19.5455C109.537 18.875 109.719 18.2898 110.082 17.7898C110.446 17.2898 110.938 16.9015 111.56 16.625C112.181 16.3447 112.882 16.2045 113.662 16.2045C114.45 16.2045 115.145 16.3428 115.747 16.6193C116.353 16.8958 116.83 17.2765 117.179 17.7614C117.527 18.2424 117.709 18.7955 117.724 19.4205H116.031ZM123.607 28.1761C122.747 28.1761 122.006 27.9924 121.385 27.625C120.768 27.2538 120.29 26.733 119.953 26.0625C119.62 25.3883 119.453 24.5985 119.453 23.6932C119.453 22.7992 119.62 22.0114 119.953 21.3295C120.29 20.6477 120.76 20.1155 121.362 19.733C121.968 19.3504 122.677 19.1591 123.487 19.1591C123.98 19.1591 124.457 19.2405 124.919 19.4034C125.381 19.5663 125.796 19.822 126.163 20.1705C126.531 20.5189 126.821 20.9716 127.033 21.5284C127.245 22.0814 127.351 22.7538 127.351 23.5455V24.1477H120.413V22.875H125.686C125.686 22.428 125.595 22.0322 125.413 21.6875C125.232 21.339 124.976 21.0644 124.646 20.8636C124.321 20.6629 123.938 20.5625 123.499 20.5625C123.021 20.5625 122.605 20.6799 122.249 20.9148C121.896 21.1458 121.624 21.4489 121.43 21.8239C121.241 22.1951 121.146 22.5985 121.146 23.0341V24.0284C121.146 24.6117 121.249 25.108 121.453 25.517C121.661 25.9261 121.951 26.2386 122.322 26.4545C122.694 26.6667 123.127 26.7727 123.624 26.7727C123.946 26.7727 124.239 26.7273 124.504 26.6364C124.769 26.5417 124.999 26.4015 125.192 26.2159C125.385 26.0303 125.533 25.8011 125.635 25.5284L127.243 25.8182C127.114 26.2917 126.883 26.7064 126.55 27.0625C126.22 27.4148 125.805 27.6894 125.305 27.8864C124.809 28.0795 124.243 28.1761 123.607 28.1761ZM135.776 21.4034L134.236 21.6761C134.171 21.4792 134.069 21.2917 133.929 21.1136C133.793 20.9356 133.607 20.7898 133.372 20.6761C133.137 20.5625 132.844 20.5057 132.491 20.5057C132.01 20.5057 131.609 20.6136 131.287 20.8295C130.965 21.0417 130.804 21.3163 130.804 21.6534C130.804 21.9451 130.912 22.1799 131.128 22.358C131.344 22.536 131.692 22.6818 132.173 22.7955L133.56 23.1136C134.363 23.2992 134.961 23.5852 135.355 23.9716C135.749 24.358 135.946 24.8598 135.946 25.4773C135.946 26 135.795 26.4659 135.491 26.875C135.192 27.2803 134.774 27.5985 134.236 27.8295C133.702 28.0606 133.082 28.1761 132.378 28.1761C131.401 28.1761 130.603 27.9678 129.986 27.5511C129.368 27.1307 128.99 26.5341 128.849 25.7614L130.491 25.5114C130.594 25.9394 130.804 26.2633 131.122 26.483C131.44 26.6989 131.855 26.8068 132.366 26.8068C132.923 26.8068 133.368 26.6913 133.702 26.4602C134.035 26.2254 134.202 25.9394 134.202 25.6023C134.202 25.3295 134.099 25.1004 133.895 24.9148C133.694 24.7292 133.385 24.589 132.969 24.4943L131.491 24.1705C130.677 23.9848 130.075 23.6894 129.685 23.2841C129.298 22.8788 129.105 22.3655 129.105 21.7443C129.105 21.2292 129.249 20.7784 129.537 20.392C129.825 20.0057 130.223 19.7045 130.73 19.4886C131.238 19.2689 131.819 19.1591 132.474 19.1591C133.418 19.1591 134.16 19.3636 134.702 19.7727C135.243 20.178 135.601 20.7216 135.776 21.4034ZM144.354 21.4034L142.814 21.6761C142.75 21.4792 142.647 21.2917 142.507 21.1136C142.371 20.9356 142.185 20.7898 141.95 20.6761C141.715 20.5625 141.422 20.5057 141.07 20.5057C140.589 20.5057 140.187 20.6136 139.865 20.8295C139.543 21.0417 139.382 21.3163 139.382 21.6534C139.382 21.9451 139.49 22.1799 139.706 22.358C139.922 22.536 140.27 22.6818 140.751 22.7955L142.138 23.1136C142.941 23.2992 143.539 23.5852 143.933 23.9716C144.327 24.358 144.524 24.8598 144.524 25.4773C144.524 26 144.373 26.4659 144.07 26.875C143.77 27.2803 143.352 27.5985 142.814 27.8295C142.28 28.0606 141.661 28.1761 140.956 28.1761C139.979 28.1761 139.181 27.9678 138.564 27.5511C137.946 27.1307 137.568 26.5341 137.428 25.7614L139.07 25.5114C139.172 25.9394 139.382 26.2633 139.7 26.483C140.018 26.6989 140.433 26.8068 140.945 26.8068C141.501 26.8068 141.946 26.6913 142.28 26.4602C142.613 26.2254 142.78 25.9394 142.78 25.6023C142.78 25.3295 142.678 25.1004 142.473 24.9148C142.272 24.7292 141.964 24.589 141.547 24.4943L140.07 24.1705C139.255 23.9848 138.653 23.6894 138.263 23.2841C137.876 22.8788 137.683 22.3655 137.683 21.7443C137.683 21.2292 137.827 20.7784 138.115 20.392C138.403 20.0057 138.801 19.7045 139.308 19.4886C139.816 19.2689 140.397 19.1591 141.053 19.1591C141.996 19.1591 142.738 19.3636 143.28 19.7727C143.821 20.178 144.179 20.7216 144.354 21.4034ZM146.392 28V19.2727H148.091V28H146.392ZM147.25 17.9261C146.955 17.9261 146.701 17.8277 146.489 17.6307C146.28 17.4299 146.176 17.1913 146.176 16.9148C146.176 16.6345 146.28 16.3958 146.489 16.1989C146.701 15.9981 146.955 15.8977 147.25 15.8977C147.545 15.8977 147.797 15.9981 148.006 16.1989C148.218 16.3958 148.324 16.6345 148.324 16.9148C148.324 17.1913 148.218 17.4299 148.006 17.6307C147.797 17.8277 147.545 17.9261 147.25 17.9261ZM154.053 28.1761C153.234 28.1761 152.52 27.9886 151.911 27.6136C151.301 27.2386 150.827 26.714 150.49 26.0398C150.153 25.3655 149.984 24.5777 149.984 23.6761C149.984 22.7708 150.153 21.9792 150.49 21.3011C150.827 20.6231 151.301 20.0966 151.911 19.7216C152.52 19.3466 153.234 19.1591 154.053 19.1591C154.871 19.1591 155.585 19.3466 156.195 19.7216C156.804 20.0966 157.278 20.6231 157.615 21.3011C157.952 21.9792 158.121 22.7708 158.121 23.6761C158.121 24.5777 157.952 25.3655 157.615 26.0398C157.278 26.714 156.804 27.2386 156.195 27.6136C155.585 27.9886 154.871 28.1761 154.053 28.1761ZM154.058 26.75C154.589 26.75 155.028 26.6098 155.376 26.3295C155.725 26.0492 155.982 25.6761 156.149 25.2102C156.32 24.7443 156.405 24.2311 156.405 23.6705C156.405 23.1136 156.32 22.6023 156.149 22.1364C155.982 21.6667 155.725 21.2898 155.376 21.0057C155.028 20.7216 154.589 20.5795 154.058 20.5795C153.524 20.5795 153.081 20.7216 152.729 21.0057C152.38 21.2898 152.121 21.6667 151.95 22.1364C151.784 22.6023 151.7 23.1136 151.7 23.6705C151.7 24.2311 151.784 24.7443 151.95 25.2102C152.121 25.6761 152.38 26.0492 152.729 26.3295C153.081 26.6098 153.524 26.75 154.058 26.75ZM161.716 22.8182V28H160.017V19.2727H161.648V20.6932H161.756C161.956 20.2311 162.271 19.8598 162.699 19.5795C163.131 19.2992 163.674 19.1591 164.33 19.1591C164.924 19.1591 165.445 19.2841 165.892 19.5341C166.339 19.7803 166.686 20.1477 166.932 20.6364C167.178 21.125 167.301 21.7292 167.301 22.4489V28H165.602V22.6534C165.602 22.0208 165.438 21.5265 165.108 21.1705C164.778 20.8106 164.326 20.6307 163.75 20.6307C163.356 20.6307 163.006 20.7159 162.699 20.8864C162.396 21.0568 162.155 21.3068 161.977 21.6364C161.803 21.9621 161.716 22.3561 161.716 22.8182ZM181.433 16.3636H183.195V24.017C183.195 24.8314 183.003 25.553 182.621 26.1818C182.238 26.8068 181.7 27.2992 181.007 27.6591C180.314 28.0152 179.501 28.1932 178.57 28.1932C177.642 28.1932 176.831 28.0152 176.138 27.6591C175.445 27.2992 174.907 26.8068 174.524 26.1818C174.142 25.553 173.95 24.8314 173.95 24.017V16.3636H175.706V23.875C175.706 24.4015 175.821 24.8693 176.053 25.2784C176.287 25.6875 176.619 26.0095 177.047 26.2443C177.475 26.4754 177.982 26.5909 178.57 26.5909C179.161 26.5909 179.67 26.4754 180.098 26.2443C180.53 26.0095 180.859 25.6875 181.087 25.2784C181.318 24.8693 181.433 24.4015 181.433 23.875V16.3636ZM192.151 21.4034L190.611 21.6761C190.546 21.4792 190.444 21.2917 190.304 21.1136C190.168 20.9356 189.982 20.7898 189.747 20.6761C189.512 20.5625 189.219 20.5057 188.866 20.5057C188.385 20.5057 187.984 20.6136 187.662 20.8295C187.34 21.0417 187.179 21.3163 187.179 21.6534C187.179 21.9451 187.287 22.1799 187.503 22.358C187.719 22.536 188.067 22.6818 188.548 22.7955L189.935 23.1136C190.738 23.2992 191.336 23.5852 191.73 23.9716C192.124 24.358 192.321 24.8598 192.321 25.4773C192.321 26 192.17 26.4659 191.866 26.875C191.567 27.2803 191.149 27.5985 190.611 27.8295C190.077 28.0606 189.457 28.1761 188.753 28.1761C187.776 28.1761 186.978 27.9678 186.361 27.5511C185.743 27.1307 185.365 26.5341 185.224 25.7614L186.866 25.5114C186.969 25.9394 187.179 26.2633 187.497 26.483C187.815 26.6989 188.23 26.8068 188.741 26.8068C189.298 26.8068 189.743 26.6913 190.077 26.4602C190.41 26.2254 190.577 25.9394 190.577 25.6023C190.577 25.3295 190.474 25.1004 190.27 24.9148C190.069 24.7292 189.76 24.589 189.344 24.4943L187.866 24.1705C187.052 23.9848 186.45 23.6894 186.06 23.2841C185.673 22.8788 185.48 22.3655 185.48 21.7443C185.48 21.2292 185.624 20.7784 185.912 20.392C186.2 20.0057 186.598 19.7045 187.105 19.4886C187.613 19.2689 188.194 19.1591 188.849 19.1591C189.793 19.1591 190.535 19.3636 191.077 19.7727C191.618 20.178 191.976 20.7216 192.151 21.4034ZM197.95 28.1761C197.09 28.1761 196.35 27.9924 195.729 27.625C195.111 27.2538 194.634 26.733 194.297 26.0625C193.964 25.3883 193.797 24.5985 193.797 23.6932C193.797 22.7992 193.964 22.0114 194.297 21.3295C194.634 20.6477 195.104 20.1155 195.706 19.733C196.312 19.3504 197.02 19.1591 197.831 19.1591C198.323 19.1591 198.801 19.2405 199.263 19.4034C199.725 19.5663 200.14 19.822 200.507 20.1705C200.875 20.5189 201.164 20.9716 201.376 21.5284C201.589 22.0814 201.695 22.7538 201.695 23.5455V24.1477H194.757V22.875H200.03C200.03 22.428 199.939 22.0322 199.757 21.6875C199.575 21.339 199.32 21.0644 198.99 20.8636C198.664 20.6629 198.282 20.5625 197.842 20.5625C197.365 20.5625 196.948 20.6799 196.592 20.9148C196.24 21.1458 195.967 21.4489 195.774 21.8239C195.585 22.1951 195.49 22.5985 195.49 23.0341V24.0284C195.49 24.6117 195.592 25.108 195.797 25.517C196.005 25.9261 196.295 26.2386 196.666 26.4545C197.037 26.6667 197.471 26.7727 197.967 26.7727C198.289 26.7727 198.583 26.7273 198.848 26.6364C199.113 26.5417 199.342 26.4015 199.536 26.2159C199.729 26.0303 199.876 25.8011 199.979 25.5284L201.587 25.8182C201.458 26.2917 201.227 26.7064 200.893 27.0625C200.564 27.4148 200.149 27.6894 199.649 27.8864C199.153 28.0795 198.587 28.1761 197.95 28.1761ZM203.58 28V19.2727H205.222V20.6591H205.312C205.472 20.1894 205.752 19.8201 206.153 19.5511C206.559 19.2784 207.017 19.142 207.528 19.142C207.634 19.142 207.759 19.1458 207.903 19.1534C208.051 19.161 208.167 19.1705 208.25 19.1818V20.8068C208.182 20.7879 208.061 20.767 207.886 20.7443C207.712 20.7178 207.538 20.7045 207.364 20.7045C206.962 20.7045 206.604 20.7898 206.29 20.9602C205.979 21.1269 205.733 21.3598 205.551 21.6591C205.369 21.9545 205.278 22.2917 205.278 22.6705V28H203.58Z" fill="black"/>
<path d="M74.0568 47V38.2727H75.1136V46.0625H79.1705V47H74.0568ZM83.3295 47.1364C82.7386 47.1364 82.2202 46.9957 81.7741 46.7145C81.331 46.4332 80.9844 46.0398 80.7344 45.5341C80.4872 45.0284 80.3636 44.4375 80.3636 43.7614C80.3636 43.0795 80.4872 42.4844 80.7344 41.9759C80.9844 41.4673 81.331 41.0724 81.7741 40.7912C82.2202 40.5099 82.7386 40.3693 83.3295 40.3693C83.9205 40.3693 84.4375 40.5099 84.8807 40.7912C85.3267 41.0724 85.6733 41.4673 85.9205 41.9759C86.1705 42.4844 86.2955 43.0795 86.2955 43.7614C86.2955 44.4375 86.1705 45.0284 85.9205 45.5341C85.6733 46.0398 85.3267 46.4332 84.8807 46.7145C84.4375 46.9957 83.9205 47.1364 83.3295 47.1364ZM83.3295 46.233C83.7784 46.233 84.1477 46.1179 84.4375 45.8878C84.7273 45.6577 84.9418 45.3551 85.081 44.9801C85.2202 44.6051 85.2898 44.1989 85.2898 43.7614C85.2898 43.3239 85.2202 42.9162 85.081 42.5384C84.9418 42.1605 84.7273 41.8551 84.4375 41.6222C84.1477 41.3892 83.7784 41.2727 83.3295 41.2727C82.8807 41.2727 82.5114 41.3892 82.2216 41.6222C81.9318 41.8551 81.7173 42.1605 81.5781 42.5384C81.4389 42.9162 81.3693 43.3239 81.3693 43.7614C81.3693 44.1989 81.4389 44.6051 81.5781 44.9801C81.7173 45.3551 81.9318 45.6577 82.2216 45.8878C82.5114 46.1179 82.8807 46.233 83.3295 46.233ZM90.4727 49.5909C89.9869 49.5909 89.5692 49.5284 89.2198 49.4034C88.8704 49.2812 88.5792 49.1193 88.3462 48.9176C88.1161 48.7188 87.9329 48.5057 87.7965 48.2784L88.5977 47.7159C88.6886 47.8352 88.8036 47.9716 88.9428 48.125C89.082 48.2812 89.2724 48.4162 89.5138 48.5298C89.7582 48.6463 90.0778 48.7045 90.4727 48.7045C91.0011 48.7045 91.4371 48.5767 91.7809 48.321C92.1246 48.0653 92.2965 47.6648 92.2965 47.1193V45.7898H92.2113C92.1374 45.9091 92.0323 46.0568 91.896 46.233C91.7624 46.4062 91.5692 46.5611 91.3164 46.6974C91.0664 46.831 90.7283 46.8977 90.3022 46.8977C89.7738 46.8977 89.2994 46.7727 88.8789 46.5227C88.4613 46.2727 88.1303 45.9091 87.886 45.4318C87.6445 44.9545 87.5238 44.375 87.5238 43.6932C87.5238 43.0227 87.6417 42.4389 87.8775 41.9418C88.1133 41.4418 88.4414 41.0554 88.8619 40.7827C89.2823 40.5071 89.7681 40.3693 90.3192 40.3693C90.7454 40.3693 91.0835 40.4403 91.3335 40.5824C91.5863 40.7216 91.7795 40.8807 91.913 41.0597C92.0494 41.2358 92.1545 41.3807 92.2283 41.4943H92.3306V40.4545H93.3022V47.1875C93.3022 47.75 93.1744 48.2074 92.9187 48.5597C92.6658 48.9148 92.3249 49.1747 91.896 49.3395C91.4698 49.5071 90.9954 49.5909 90.4727 49.5909ZM90.4386 45.9943C90.842 45.9943 91.1829 45.902 91.4613 45.7173C91.7397 45.5327 91.9513 45.267 92.0962 44.9205C92.2411 44.5739 92.3136 44.1591 92.3136 43.6761C92.3136 43.2045 92.2425 42.7884 92.1005 42.4276C91.9585 42.0668 91.7482 41.7841 91.4698 41.5795C91.1914 41.375 90.8477 41.2727 90.4386 41.2727C90.0124 41.2727 89.6573 41.3807 89.3732 41.5966C89.092 41.8125 88.8803 42.1023 88.7383 42.4659C88.5991 42.8295 88.5295 43.233 88.5295 43.6761C88.5295 44.1307 88.6005 44.5327 88.7425 44.8821C88.8874 45.2287 89.1005 45.5014 89.3817 45.7003C89.6658 45.8963 90.0181 45.9943 90.4386 45.9943ZM97.7852 49.5909C97.2994 49.5909 96.8817 49.5284 96.5323 49.4034C96.1829 49.2812 95.8917 49.1193 95.6587 48.9176C95.4286 48.7188 95.2454 48.5057 95.109 48.2784L95.9102 47.7159C96.0011 47.8352 96.1161 47.9716 96.2553 48.125C96.3945 48.2812 96.5849 48.4162 96.8263 48.5298C97.0707 48.6463 97.3903 48.7045 97.7852 48.7045C98.3136 48.7045 98.7496 48.5767 99.0934 48.321C99.4371 48.0653 99.609 47.6648 99.609 47.1193V45.7898H99.5238C99.4499 45.9091 99.3448 46.0568 99.2085 46.233C99.0749 46.4062 98.8817 46.5611 98.6289 46.6974C98.3789 46.831 98.0408 46.8977 97.6147 46.8977C97.0863 46.8977 96.6119 46.7727 96.1914 46.5227C95.7738 46.2727 95.4428 45.9091 95.1985 45.4318C94.957 44.9545 94.8363 44.375 94.8363 43.6932C94.8363 43.0227 94.9542 42.4389 95.19 41.9418C95.4258 41.4418 95.7539 41.0554 96.1744 40.7827C96.5948 40.5071 97.0806 40.3693 97.6317 40.3693C98.0579 40.3693 98.396 40.4403 98.646 40.5824C98.8988 40.7216 99.092 40.8807 99.2255 41.0597C99.3619 41.2358 99.467 41.3807 99.5408 41.4943H99.6431V40.4545H100.615V47.1875C100.615 47.75 100.487 48.2074 100.231 48.5597C99.9783 48.9148 99.6374 49.1747 99.2085 49.3395C98.7823 49.5071 98.3079 49.5909 97.7852 49.5909ZM97.7511 45.9943C98.1545 45.9943 98.4954 45.902 98.7738 45.7173C99.0522 45.5327 99.2638 45.267 99.4087 44.9205C99.5536 44.5739 99.6261 44.1591 99.6261 43.6761C99.6261 43.2045 99.555 42.7884 99.413 42.4276C99.271 42.0668 99.0607 41.7841 98.7823 41.5795C98.5039 41.375 98.1602 41.2727 97.7511 41.2727C97.3249 41.2727 96.9698 41.3807 96.6857 41.5966C96.4045 41.8125 96.1928 42.1023 96.0508 42.4659C95.9116 42.8295 95.842 43.233 95.842 43.6761C95.842 44.1307 95.913 44.5327 96.055 44.8821C96.1999 45.2287 96.413 45.5014 96.6942 45.7003C96.9783 45.8963 97.3306 45.9943 97.7511 45.9943ZM105.2 47.1364C104.569 47.1364 104.025 46.9972 103.568 46.7188C103.113 46.4375 102.762 46.0455 102.515 45.5426C102.271 45.0369 102.149 44.4489 102.149 43.7784C102.149 43.108 102.271 42.517 102.515 42.0057C102.762 41.4915 103.106 41.0909 103.547 40.804C103.99 40.5142 104.507 40.3693 105.098 40.3693C105.439 40.3693 105.775 40.4261 106.108 40.5398C106.44 40.6534 106.743 40.8381 107.015 41.0938C107.288 41.3466 107.505 41.6818 107.667 42.0994C107.829 42.517 107.91 43.0312 107.91 43.642V44.0682H102.865V43.1989H106.887C106.887 42.8295 106.814 42.5 106.666 42.2102C106.521 41.9205 106.314 41.6918 106.044 41.5241C105.777 41.3565 105.461 41.2727 105.098 41.2727C104.697 41.2727 104.35 41.3722 104.058 41.571C103.768 41.767 103.545 42.0227 103.389 42.3381C103.233 42.6534 103.154 42.9915 103.154 43.3523V43.9318C103.154 44.4261 103.24 44.8452 103.41 45.1889C103.583 45.5298 103.824 45.7898 104.13 45.9688C104.437 46.1449 104.794 46.233 105.2 46.233C105.464 46.233 105.703 46.196 105.916 46.1222C106.132 46.0455 106.318 45.9318 106.474 45.7812C106.63 45.6278 106.751 45.4375 106.836 45.2102L107.808 45.483C107.706 45.8125 107.534 46.1023 107.292 46.3523C107.051 46.5994 106.752 46.7926 106.397 46.9318C106.042 47.0682 105.643 47.1364 105.2 47.1364ZM111.912 47.1364C111.366 47.1364 110.885 46.9986 110.467 46.723C110.049 46.4446 109.723 46.0526 109.487 45.5469C109.251 45.0384 109.133 44.4375 109.133 43.7443C109.133 43.0568 109.251 42.4602 109.487 41.9545C109.723 41.4489 110.051 41.0582 110.471 40.7827C110.892 40.5071 111.377 40.3693 111.929 40.3693C112.355 40.3693 112.691 40.4403 112.939 40.5824C113.189 40.7216 113.379 40.8807 113.51 41.0597C113.643 41.2358 113.747 41.3807 113.821 41.4943H113.906V38.2727H114.912V47H113.94V45.9943H113.821C113.747 46.1136 113.642 46.2642 113.505 46.446C113.369 46.625 113.174 46.7855 112.922 46.9276C112.669 47.0668 112.332 47.1364 111.912 47.1364ZM112.048 46.233C112.451 46.233 112.792 46.1278 113.071 45.9176C113.349 45.7045 113.561 45.4105 113.706 45.0355C113.85 44.6577 113.923 44.2216 113.923 43.7273C113.923 43.2386 113.852 42.8111 113.71 42.4446C113.568 42.0753 113.358 41.7884 113.079 41.5838C112.801 41.3764 112.457 41.2727 112.048 41.2727C111.622 41.2727 111.267 41.3821 110.983 41.6009C110.701 41.8168 110.49 42.1108 110.348 42.483C110.208 42.8523 110.139 43.267 110.139 43.7273C110.139 44.1932 110.21 44.6165 110.352 44.9972C110.497 45.375 110.71 45.6761 110.991 45.9006C111.275 46.1222 111.627 46.233 112.048 46.233ZM120.268 47V40.4545H121.274V47H120.268ZM120.779 39.3636C120.583 39.3636 120.414 39.2969 120.272 39.1634C120.133 39.0298 120.064 38.8693 120.064 38.6818C120.064 38.4943 120.133 38.3338 120.272 38.2003C120.414 38.0668 120.583 38 120.779 38C120.975 38 121.143 38.0668 121.282 38.2003C121.424 38.3338 121.495 38.4943 121.495 38.6818C121.495 38.8693 121.424 39.0298 121.282 39.1634C121.143 39.2969 120.975 39.3636 120.779 39.3636ZM124.121 43.0625V47H123.116V40.4545H124.087V41.4773H124.173C124.326 41.1449 124.559 40.8778 124.871 40.6761C125.184 40.4716 125.587 40.3693 126.082 40.3693C126.525 40.3693 126.913 40.4602 127.245 40.642C127.577 40.821 127.836 41.0938 128.021 41.4602C128.205 41.8239 128.298 42.2841 128.298 42.8409V47H127.292V42.9091C127.292 42.3949 127.158 41.9943 126.891 41.7074C126.624 41.4176 126.258 41.2727 125.792 41.2727C125.471 41.2727 125.184 41.3423 124.931 41.4815C124.681 41.6207 124.484 41.8239 124.339 42.0909C124.194 42.358 124.121 42.6818 124.121 43.0625Z" fill="black" fill-opacity="0.5"/>
<defs>
<radialGradient id="paint0_radial_207_33" cx="0" cy="0" r="1" gradientUnits="userSpaceOnUse" gradientTransform="translate(32 57.0002) scale(24 7)">
<stop/>
<stop offset="1" stop-opacity="0"/>
</radialGradient>
<radialGradient id="paint1_radial_207_33" cx="0" cy="0" r="1" gradientUnits="userSpaceOnUse" gradientTransform="translate(32 59.0006) scale(16 4.9999)">
<stop/>
<stop offset="1" stop-opacity="0"/>
</radialGradient>
<linearGradient id="paint2_linear_207_33" x1="32" y1="2.5" x2="32" y2="61.5331" gradientUnits="userSpaceOnUse">
<stop stop-color="#43D6B5"/>
<stop offset="1" stop-color="#28BCA3"/>
</linearGradient>
<linearGradient id="paint3_linear_207_33" x1="29.739" y1="2.91909" x2="29.739" y2="61.3854" gradientUnits="userSpaceOnUse">
<stop stop-color="white"/>
<stop offset="0.424479" stop-color="white" stop-opacity="0.235294"/>
<stop offset="0.820899" stop-color="white" stop-opacity="0.156863"/>
<stop offset="1" stop-color="white" stop-opacity="0.392157"/>
</linearGradient>
<clipPath id="clip0_207_33">
<rect width="64" height="64" fill="white"/>
</clipPath>
</defs>
</svg>
