<svg width="32" height="32" viewBox="0 0 32 32" fill="none" xmlns="http://www.w3.org/2000/svg">
<g clip-path="url(#clip0_167_4)">
<path d="M27 28.4998C27.0002 28.9595 26.7159 29.4147 26.1632 29.8394C25.6105 30.2641 24.8003 30.65 23.7788 30.975C22.7573 31.3001 21.5446 31.558 20.2099 31.7339C18.8752 31.9098 17.4447 32.0004 16 32.0004C14.5553 32.0004 13.1248 31.9098 11.7901 31.7339C10.4554 31.558 9.24265 31.3001 8.22118 30.975C7.19972 30.65 6.3895 30.2641 5.8368 29.8394C5.28411 29.4147 4.99976 28.9595 5 28.4998C4.99976 28.0401 5.28411 27.5849 5.8368 27.1602C6.3895 26.7355 7.19972 26.3496 8.22118 26.0246C9.24265 25.6995 10.4554 25.4416 11.7901 25.2657C13.1248 25.0898 14.5553 24.9992 16 24.9992C17.4447 24.9992 18.8752 25.0898 20.2099 25.2657C21.5446 25.4416 22.7573 25.6995 23.7788 26.0246C24.8003 26.3496 25.6105 26.7355 26.1632 27.1602C26.7159 27.5849 27.0002 28.0401 27 28.4998V28.4998Z" fill="url(#paint0_radial_167_4)"/>
<path opacity="0.99" d="M16 1.5C7.9994 1.5 1.5 7.9994 1.5 16C1.5 24.0006 7.9994 30.5 16 30.5C24.0006 30.5 30.5 24.0006 30.5 16C30.5 7.9994 24.0006 1.5 16 1.5Z" fill="url(#paint1_linear_167_4)"/>
<path opacity="0.5" d="M29.5 15.9995C29.5 23.4556 23.4554 29.5 16.0002 29.5C8.54425 29.5 2.5 23.4555 2.5 15.9995C2.5 8.54378 8.54425 2.5 16.0002 2.5C23.4554 2.5 29.5 8.54378 29.5 15.9995V15.9995Z" stroke="url(#paint2_linear_167_4)" stroke-linecap="round" stroke-linejoin="round"/>
<path opacity="0.5" d="M15.9999 1.5018C8.00031 1.5018 1.50171 8.00039 1.50171 16C1.50171 23.9996 8.00031 30.4982 15.9999 30.4982C23.9995 30.4982 30.4981 23.9996 30.4981 16C30.4981 8.00039 23.9995 1.5018 15.9999 1.5018V1.5018Z" stroke="#101010" stroke-linecap="round" stroke-linejoin="round"/>
<g filter="url(#filter0_d_167_4)">
<path d="M12.6093 25.584C11.7146 25.584 10.9079 25.4007 10.1893 25.034C9.48527 24.6673 8.92061 24.1393 8.49527 23.45C8.08461 22.7607 7.87927 21.9247 7.87927 20.942C7.87927 20.8247 7.87927 20.7073 7.87927 20.59C7.89394 20.458 7.90861 20.3333 7.92327 20.216C7.27794 19.6147 6.80861 18.962 6.51527 18.258C6.22194 17.5393 6.07527 16.828 6.07527 16.124C6.07527 15.4347 6.19261 14.7673 6.42727 14.122C6.67661 13.462 6.99927 12.8827 7.39527 12.384L7.41727 12.34L7.21927 12.01C6.89661 11.4673 6.73527 10.9247 6.73527 10.382C6.73527 9.83933 6.88927 9.348 7.19727 8.908C7.51994 8.45333 7.95994 8.094 8.51727 7.83C9.08927 7.566 9.74927 7.434 10.4973 7.434C11.1573 7.434 11.8833 7.55133 12.6753 7.786C13.4673 8.02067 14.2886 8.41667 15.1393 8.974C15.3006 9.07667 15.4619 9.18667 15.6233 9.304C15.7993 9.42133 15.9679 9.546 16.1293 9.678C16.6719 9.35533 17.2146 9.062 17.7573 8.798C18.2999 8.51933 18.8426 8.28467 19.3853 8.094C20.1479 7.80067 20.8373 7.59533 21.4533 7.478C22.0839 7.346 22.6413 7.28 23.1253 7.28C24.0346 7.28 24.7093 7.478 25.1493 7.874C25.6039 8.25533 25.8313 8.74667 25.8313 9.348C25.8313 9.876 25.6626 10.4553 25.3253 11.086C25.0026 11.702 24.5113 12.3253 23.8513 12.956C23.1913 13.572 22.3773 14.1367 21.4093 14.65C20.9253 14.8993 20.4339 15.1193 19.9353 15.31C19.9646 15.442 19.9939 15.5813 20.0233 15.728C20.0526 15.86 20.0746 15.9993 20.0893 16.146C20.1039 16.2487 20.1113 16.3587 20.1113 16.476C20.1259 16.5933 20.1333 16.7107 20.1333 16.828C20.1333 17.664 19.9426 18.4193 19.5613 19.094C19.1946 19.7687 18.6886 20.3407 18.0433 20.81C17.4126 21.2793 16.6866 21.646 15.8653 21.91C15.0586 22.1593 14.2226 22.284 13.3573 22.284C12.7119 22.284 12.0593 22.2107 11.3993 22.064C10.7539 21.9173 10.1306 21.6827 9.52927 21.36C9.51461 22.592 9.80061 23.538 10.3873 24.198C10.9739 24.8727 11.7806 25.21 12.8073 25.21C13.3499 25.21 13.9513 25.1 14.6113 24.88C15.2713 24.6747 15.9606 24.3667 16.6793 23.956C17.3686 23.56 18.0139 23.1127 18.6153 22.614C19.2313 22.1007 19.7813 21.58 20.2653 21.052C20.7639 20.5093 21.1526 19.996 21.4313 19.512C21.4606 19.4533 21.5046 19.424 21.5633 19.424C21.6073 19.424 21.6439 19.446 21.6733 19.49C21.7173 19.534 21.7246 19.5927 21.6953 19.666C21.2113 20.5167 20.5439 21.36 19.6933 22.196C18.8573 23.0173 17.9333 23.7213 16.9213 24.308C16.1879 24.7333 15.4546 25.0487 14.7213 25.254C13.9879 25.474 13.2839 25.584 12.6093 25.584ZM19.8473 14.98C20.0966 14.8773 20.3313 14.7747 20.5513 14.672C20.7713 14.5693 20.9839 14.4593 21.1893 14.342C22.5386 13.594 23.5653 12.758 24.2693 11.834C24.9733 10.91 25.3253 10.0887 25.3253 9.37C25.3253 8.85667 25.1493 8.446 24.7973 8.138C24.4599 7.81533 23.9246 7.654 23.1913 7.654C22.7366 7.654 22.2013 7.73467 21.5853 7.896C20.9839 8.04267 20.2946 8.28467 19.5173 8.622C18.5639 9.018 17.6326 9.53867 16.7233 10.184C17.4273 10.8147 18.0579 11.548 18.6153 12.384C19.1726 13.2053 19.5833 14.0707 19.8473 14.98ZM10.4313 14.54C11.1206 13.6893 11.9126 12.8753 12.8073 12.098C13.7166 11.306 14.6626 10.5947 15.6453 9.964L14.9633 9.502C14.2153 8.98867 13.4746 8.622 12.7413 8.402C12.0226 8.182 11.3479 8.072 10.7173 8.072C9.76394 8.072 8.97194 8.292 8.34127 8.732C7.72527 9.172 7.41727 9.75867 7.41727 10.492C7.41727 10.9173 7.54927 11.3867 7.81327 11.9C8.61994 11.0933 9.50727 10.69 10.4753 10.69C10.6806 10.69 10.8786 10.712 11.0693 10.756C11.2599 10.7853 11.4506 10.844 11.6413 10.932C11.6999 10.9467 11.7293 10.9833 11.7293 11.042C11.7293 11.086 11.7073 11.1227 11.6633 11.152C11.6193 11.1667 11.5606 11.1593 11.4873 11.13C11.2233 11.0273 10.9226 10.976 10.5853 10.976C9.61727 10.976 8.75194 11.394 7.98927 12.23L8.03327 12.296C8.66394 13.2347 9.46327 13.9827 10.4313 14.54ZM15.4253 15.772C16.8479 15.772 18.2193 15.5447 19.5393 15.09C19.2753 14.1807 18.8499 13.3373 18.2633 12.56C17.6913 11.768 17.0386 11.0713 16.3053 10.47C15.4253 11.1007 14.5819 11.812 13.7753 12.604C12.9833 13.396 12.2866 14.2393 11.6853 15.134C12.2719 15.354 12.8806 15.5153 13.5113 15.618C14.1419 15.7207 14.7799 15.772 15.4253 15.772ZM8.05527 19.336C8.11394 19.072 8.17994 18.8007 8.25327 18.522C8.34127 18.2433 8.43661 17.9573 8.53927 17.664C8.90594 16.74 9.44127 15.8233 10.1453 14.914C9.64661 14.6353 9.18461 14.3127 8.75927 13.946C8.34861 13.5793 7.97461 13.1613 7.63727 12.692L7.54927 12.802C6.90394 13.6087 6.58127 14.5693 6.58127 15.684C6.58127 16.3 6.69861 16.9233 6.93327 17.554C7.16794 18.1847 7.54194 18.7787 8.05527 19.336ZM13.8413 21.778C14.8973 21.778 15.8799 21.58 16.7893 21.184C17.6986 20.788 18.4246 20.2233 18.9673 19.49C19.5246 18.7567 19.8033 17.884 19.8033 16.872C19.8033 16.7107 19.7959 16.5493 19.7813 16.388C19.7666 16.2267 19.7446 16.058 19.7153 15.882L19.6273 15.42C18.2486 15.8893 16.7966 16.124 15.2713 16.124C14.6113 16.124 13.9586 16.0727 13.3133 15.97C12.6679 15.8673 12.0446 15.7133 11.4433 15.508C10.8713 16.4027 10.4166 17.3487 10.0793 18.346C9.96194 18.7567 9.85927 19.1453 9.77127 19.512C9.68327 19.8787 9.62461 20.2307 9.59527 20.568C9.65394 20.612 9.71261 20.656 9.77127 20.7C9.82994 20.7293 9.88861 20.7587 9.94727 20.788C10.5779 21.1253 11.2233 21.3747 11.8833 21.536C12.5433 21.6973 13.1959 21.778 13.8413 21.778Z" fill="white"/>
</g>
</g>
<defs>
<filter id="filter0_d_167_4" x="6.0752" y="7.28" width="19.7561" height="19.304" filterUnits="userSpaceOnUse" color-interpolation-filters="sRGB">
<feFlood flood-opacity="0" result="BackgroundImageFix"/>
<feColorMatrix in="SourceAlpha" type="matrix" values="0 0 0 0 0 0 0 0 0 0 0 0 0 0 0 0 0 0 127 0" result="hardAlpha"/>
<feOffset dy="1"/>
<feComposite in2="hardAlpha" operator="out"/>
<feColorMatrix type="matrix" values="0 0 0 0 0 0 0 0 0 0 0 0 0 0 0 0 0 0 0.25 0"/>
<feBlend mode="normal" in2="BackgroundImageFix" result="effect1_dropShadow_167_4"/>
<feBlend mode="normal" in="SourceGraphic" in2="effect1_dropShadow_167_4" result="shape"/>
</filter>
<radialGradient id="paint0_radial_167_4" cx="0" cy="0" r="1" gradientUnits="userSpaceOnUse" gradientTransform="translate(16 28.4998) scale(11 3.5)">
<stop stop-color="#3D3D3D"/>
<stop offset="0.5" stop-color="#686868" stop-opacity="0.498039"/>
<stop offset="1" stop-color="#686868" stop-opacity="0"/>
</radialGradient>
<linearGradient id="paint1_linear_167_4" x1="11.9394" y1="2.30228" x2="11.9394" y2="30.4875" gradientUnits="userSpaceOnUse">
<stop stop-color="#EA2B92"/>
<stop offset="1" stop-color="#5F096C"/>
</linearGradient>
<linearGradient id="paint2_linear_167_4" x1="15.6139" y1="2.04781" x2="15.6139" y2="29.8529" gradientUnits="userSpaceOnUse">
<stop stop-color="white"/>
<stop offset="0.507761" stop-color="white" stop-opacity="0.235294"/>
<stop offset="0.834566" stop-color="white" stop-opacity="0.156863"/>
<stop offset="1" stop-color="white" stop-opacity="0.392157"/>
</linearGradient>
<clipPath id="clip0_167_4">
<rect width="32" height="32" fill="white"/>
</clipPath>
</defs>
</svg>
