<svg width="218" height="59" viewBox="0 0 218 59" fill="none" xmlns="http://www.w3.org/2000/svg">
<g opacity="0.99" filter="url(#filter0_d_216_27)">
<path d="M14 4.5C8.75823 4.5 4.5 8.75823 4.5 14C4.5 19.2418 8.75823 23.5 14 23.5C19.2418 23.5 23.5 19.2418 23.5 14C23.5 8.75823 19.2418 4.5 14 4.5V4.5Z" fill="url(#paint0_linear_216_27)"/>
</g>
<path opacity="0.5" d="M14 4.5C8.75823 4.5 4.5 8.75823 4.5 14C4.5 19.2418 8.75823 23.5 14 23.5C19.2418 23.5 23.5 19.2418 23.5 14C23.5 8.75823 19.2418 4.5 14 4.5Z" stroke="#00386B" stroke-linecap="round" stroke-linejoin="round"/>
<path opacity="0.5" d="M22.5 13.9997C22.5 18.6943 18.6941 22.5 14.0001 22.5C9.30564 22.5 5.5 18.6942 5.5 13.9997C5.5 9.30533 9.30564 5.49998 14.0001 5.49998C18.6941 5.49998 22.5 9.30533 22.5 13.9997Z" stroke="url(#paint1_linear_216_27)" stroke-linecap="round" stroke-linejoin="round"/>
<g filter="url(#filter1_d_216_27)">
<path d="M9 11.5L6 14.5L12 20L22.5 11L20 8L12 14.5L9 11.5Z" fill="white"/>
</g>
<g opacity="0.99" filter="url(#filter2_d_216_27)">
<path d="M14.5 36C9.25823 36 5 40.2582 5 45.5C5 50.7418 9.25823 55 14.5 55C19.7418 55 24 50.7418 24 45.5C24 40.2582 19.7418 36 14.5 36V36Z" fill="url(#paint2_linear_216_27)"/>
</g>
<path opacity="0.5" d="M14.5 36C9.25823 36 5 40.2582 5 45.5C5 50.7418 9.25823 55 14.5 55C19.7418 55 24 50.7418 24 45.5C24 40.2582 19.7418 36 14.5 36Z" stroke="#2F2F2F" stroke-linecap="round" stroke-linejoin="round"/>
<path opacity="0.5" d="M23 45.4997C23 50.1943 19.1941 54 14.5001 54C9.80564 54 6 50.1942 6 45.4997C6 40.8053 9.80564 37 14.5001 37C19.1941 37 23 40.8053 23 45.4997Z" stroke="url(#paint3_linear_216_27)" stroke-linecap="round" stroke-linejoin="round"/>
<path d="M36.8295 12.4545C36.7784 12.0227 36.571 11.6875 36.2074 11.4489C35.8438 11.2102 35.3977 11.0909 34.8693 11.0909C34.483 11.0909 34.1449 11.1534 33.8551 11.2784C33.5682 11.4034 33.3438 11.5753 33.1818 11.794C33.0227 12.0128 32.9432 12.2614 32.9432 12.5398C32.9432 12.7727 32.9986 12.973 33.1094 13.1406C33.223 13.3054 33.3679 13.4432 33.544 13.554C33.7202 13.6619 33.9048 13.7514 34.098 13.8224C34.2912 13.8906 34.4688 13.946 34.6307 13.9886L35.517 14.2273C35.7443 14.2869 35.9972 14.3693 36.2756 14.4744C36.5568 14.5795 36.8253 14.723 37.081 14.9048C37.3395 15.0838 37.5526 15.3139 37.7202 15.5952C37.8878 15.8764 37.9716 16.2216 37.9716 16.6307C37.9716 17.1023 37.848 17.5284 37.6009 17.9091C37.3565 18.2898 36.9986 18.5923 36.527 18.8168C36.0582 19.0412 35.4886 19.1534 34.8182 19.1534C34.1932 19.1534 33.652 19.0526 33.1946 18.8509C32.7401 18.6491 32.3821 18.3679 32.1207 18.0071C31.8622 17.6463 31.7159 17.2273 31.6818 16.75H32.7727C32.8011 17.0795 32.9119 17.3523 33.1051 17.5682C33.3011 17.7812 33.5483 17.9403 33.8466 18.0455C34.1477 18.1477 34.4716 18.1989 34.8182 18.1989C35.2216 18.1989 35.5838 18.1335 35.9048 18.0028C36.2259 17.8693 36.4801 17.6847 36.6676 17.4489C36.8551 17.2102 36.9489 16.9318 36.9489 16.6136C36.9489 16.3239 36.8679 16.0881 36.706 15.9062C36.544 15.7244 36.331 15.5767 36.0668 15.4631C35.8026 15.3494 35.517 15.25 35.2102 15.1648L34.1364 14.858C33.4545 14.6619 32.9148 14.3821 32.517 14.0185C32.1193 13.6548 31.9205 13.179 31.9205 12.5909C31.9205 12.1023 32.0526 11.6761 32.3168 11.3125C32.5838 10.946 32.9418 10.6619 33.3906 10.4602C33.8423 10.2557 34.3466 10.1534 34.9034 10.1534C35.4659 10.1534 35.9659 10.2543 36.4034 10.456C36.8409 10.6548 37.1875 10.9276 37.4432 11.2741C37.7017 11.6207 37.8381 12.0142 37.8523 12.4545H36.8295ZM42.4194 12.4545V13.3068H39.0273V12.4545H42.4194ZM40.016 10.8864H41.0217V17.125C41.0217 17.4091 41.0629 17.6222 41.1452 17.7642C41.2305 17.9034 41.3384 17.9972 41.4691 18.0455C41.6026 18.0909 41.7433 18.1136 41.891 18.1136C42.0018 18.1136 42.0927 18.108 42.1637 18.0966C42.2347 18.0824 42.2915 18.071 42.3342 18.0625L42.5387 18.9659C42.4705 18.9915 42.3754 19.017 42.2532 19.0426C42.131 19.071 41.9762 19.0852 41.7887 19.0852C41.5046 19.0852 41.2262 19.0241 40.9535 18.902C40.6836 18.7798 40.4592 18.5938 40.2802 18.3438C40.104 18.0938 40.016 17.7784 40.016 17.3977V10.8864ZM46.6062 19.1364C45.9755 19.1364 45.4315 18.9972 44.9741 18.7188C44.5195 18.4375 44.1687 18.0455 43.9215 17.5426C43.6772 17.0369 43.555 16.4489 43.555 15.7784C43.555 15.108 43.6772 14.517 43.9215 14.0057C44.1687 13.4915 44.5124 13.0909 44.9528 12.804C45.396 12.5142 45.913 12.3693 46.5039 12.3693C46.8448 12.3693 47.1815 12.4261 47.5138 12.5398C47.8462 12.6534 48.1488 12.8381 48.4215 13.0938C48.6942 13.3466 48.9116 13.6818 49.0735 14.0994C49.2354 14.517 49.3164 15.0312 49.3164 15.642V16.0682H44.271V15.1989H48.2937C48.2937 14.8295 48.2198 14.5 48.0721 14.2102C47.9272 13.9205 47.7198 13.6918 47.4499 13.5241C47.1829 13.3565 46.8675 13.2727 46.5039 13.2727C46.1033 13.2727 45.7567 13.3722 45.4641 13.571C45.1744 13.767 44.9513 14.0227 44.7951 14.3381C44.6388 14.6534 44.5607 14.9915 44.5607 15.3523V15.9318C44.5607 16.4261 44.646 16.8452 44.8164 17.1889C44.9897 17.5298 45.2298 17.7898 45.5366 17.9688C45.8434 18.1449 46.1999 18.233 46.6062 18.233C46.8704 18.233 47.109 18.196 47.3221 18.1222C47.538 18.0455 47.7241 17.9318 47.8803 17.7812C48.0366 17.6278 48.1573 17.4375 48.2425 17.2102L49.2141 17.483C49.1119 17.8125 48.94 18.1023 48.6985 18.3523C48.457 18.5994 48.1587 18.7926 47.8036 18.9318C47.4485 19.0682 47.0494 19.1364 46.6062 19.1364ZM55.9993 12.4545L53.5788 19H52.5561L50.1357 12.4545H51.2266L53.0334 17.6705H53.1016L54.9084 12.4545H55.9993ZM59.8366 19.1364C59.206 19.1364 58.6619 18.9972 58.2045 18.7188C57.75 18.4375 57.3991 18.0455 57.152 17.5426C56.9077 17.0369 56.7855 16.4489 56.7855 15.7784C56.7855 15.108 56.9077 14.517 57.152 14.0057C57.3991 13.4915 57.7429 13.0909 58.1832 12.804C58.6264 12.5142 59.1435 12.3693 59.7344 12.3693C60.0753 12.3693 60.4119 12.4261 60.7443 12.5398C61.0767 12.6534 61.3793 12.8381 61.652 13.0938C61.9247 13.3466 62.142 13.6818 62.304 14.0994C62.4659 14.517 62.5469 15.0312 62.5469 15.642V16.0682H57.5014V15.1989H61.5241C61.5241 14.8295 61.4503 14.5 61.3026 14.2102C61.1577 13.9205 60.9503 13.6918 60.6804 13.5241C60.4134 13.3565 60.098 13.2727 59.7344 13.2727C59.3338 13.2727 58.9872 13.3722 58.6946 13.571C58.4048 13.767 58.1818 14.0227 58.0256 14.3381C57.8693 14.6534 57.7912 14.9915 57.7912 15.3523V15.9318C57.7912 16.4261 57.8764 16.8452 58.0469 17.1889C58.2202 17.5298 58.4602 17.7898 58.767 17.9688C59.0739 18.1449 59.4304 18.233 59.8366 18.233C60.1009 18.233 60.3395 18.196 60.5526 18.1222C60.7685 18.0455 60.9545 17.9318 61.1108 17.7812C61.267 17.6278 61.3878 17.4375 61.473 17.2102L62.4446 17.483C62.3423 17.8125 62.1705 18.1023 61.929 18.3523C61.6875 18.5994 61.3892 18.7926 61.0341 18.9318C60.679 19.0682 60.2798 19.1364 59.8366 19.1364ZM65.1889 19L62.8026 10.2727H63.8764L65.7003 17.3807H65.7855L67.6435 10.2727H68.8366L70.6946 17.3807H70.7798L72.6037 10.2727H73.6776L71.2912 19H70.2003L68.2741 12.0455H68.206L66.2798 19H65.1889ZM74.858 19V12.4545H75.8636V19H74.858ZM75.3693 11.3636C75.1733 11.3636 75.0043 11.2969 74.8622 11.1634C74.723 11.0298 74.6534 10.8693 74.6534 10.6818C74.6534 10.4943 74.723 10.3338 74.8622 10.2003C75.0043 10.0668 75.1733 10 75.3693 10C75.5653 10 75.733 10.0668 75.8722 10.2003C76.0142 10.3338 76.0852 10.4943 76.0852 10.6818C76.0852 10.8693 76.0142 11.0298 75.8722 11.1634C75.733 11.2969 75.5653 11.3636 75.3693 11.3636ZM80.6204 12.4545V13.3068H77.092V12.4545H80.6204ZM78.1488 19V11.5511C78.1488 11.1761 78.2369 10.8636 78.413 10.6136C78.5891 10.3636 78.8178 10.1761 79.0991 10.0511C79.3803 9.92614 79.6772 9.86364 79.9897 9.86364C80.2369 9.86364 80.4386 9.88352 80.5948 9.9233C80.7511 9.96307 80.8675 10 80.9442 10.0341L80.6545 10.9034C80.6033 10.8864 80.5323 10.8651 80.4414 10.8395C80.3533 10.8139 80.2369 10.8011 80.092 10.8011C79.7596 10.8011 79.5195 10.8849 79.3718 11.0526C79.2269 11.2202 79.1545 11.4659 79.1545 11.7898V19H78.1488ZM82.0298 19V12.4545H83.0355V19H82.0298ZM82.5412 11.3636C82.3452 11.3636 82.1761 11.2969 82.0341 11.1634C81.8949 11.0298 81.8253 10.8693 81.8253 10.6818C81.8253 10.4943 81.8949 10.3338 82.0341 10.2003C82.1761 10.0668 82.3452 10 82.5412 10C82.7372 10 82.9048 10.0668 83.044 10.2003C83.1861 10.3338 83.2571 10.4943 83.2571 10.6818C83.2571 10.8693 83.1861 11.0298 83.044 11.1634C82.9048 11.2969 82.7372 11.3636 82.5412 11.3636Z" fill="#333333"/>
<path d="M31.0568 50V41.2727H32.1136V45.1591H36.767V41.2727H37.8239V50H36.767V46.0966H32.1136V50H31.0568ZM42.4624 50.1364C41.8714 50.1364 41.353 49.9957 40.907 49.7145C40.4638 49.4332 40.1172 49.0398 39.8672 48.5341C39.62 48.0284 39.4964 47.4375 39.4964 46.7614C39.4964 46.0795 39.62 45.4844 39.8672 44.9759C40.1172 44.4673 40.4638 44.0724 40.907 43.7912C41.353 43.5099 41.8714 43.3693 42.4624 43.3693C43.0533 43.3693 43.5703 43.5099 44.0135 43.7912C44.4595 44.0724 44.8061 44.4673 45.0533 44.9759C45.3033 45.4844 45.4283 46.0795 45.4283 46.7614C45.4283 47.4375 45.3033 48.0284 45.0533 48.5341C44.8061 49.0398 44.4595 49.4332 44.0135 49.7145C43.5703 49.9957 43.0533 50.1364 42.4624 50.1364ZM42.4624 49.233C42.9112 49.233 43.2805 49.1179 43.5703 48.8878C43.8601 48.6577 44.0746 48.3551 44.2138 47.9801C44.353 47.6051 44.4226 47.1989 44.4226 46.7614C44.4226 46.3239 44.353 45.9162 44.2138 45.5384C44.0746 45.1605 43.8601 44.8551 43.5703 44.6222C43.2805 44.3892 42.9112 44.2727 42.4624 44.2727C42.0135 44.2727 41.6442 44.3892 41.3544 44.6222C41.0646 44.8551 40.8501 45.1605 40.7109 45.5384C40.5717 45.9162 40.5021 46.3239 40.5021 46.7614C40.5021 47.1989 40.5717 47.6051 40.7109 47.9801C40.8501 48.3551 41.0646 48.6577 41.3544 48.8878C41.6442 49.1179 42.0135 49.233 42.4624 49.233ZM49.81 43.4545V44.3068H46.418V43.4545H49.81ZM47.4066 41.8864H48.4123V48.125C48.4123 48.4091 48.4535 48.6222 48.5359 48.7642C48.6211 48.9034 48.729 48.9972 48.8597 49.0455C48.9933 49.0909 49.1339 49.1136 49.2816 49.1136C49.3924 49.1136 49.4833 49.108 49.5543 49.0966C49.6254 49.0824 49.6822 49.071 49.7248 49.0625L49.9293 49.9659C49.8612 49.9915 49.766 50.017 49.6438 50.0426C49.5217 50.071 49.3668 50.0852 49.1793 50.0852C48.8952 50.0852 48.6168 50.0241 48.3441 49.902C48.0742 49.7798 47.8498 49.5938 47.6708 49.3438C47.4947 49.0938 47.4066 48.7784 47.4066 48.3977V41.8864ZM56.2319 43.4545C56.1808 43.0227 55.9734 42.6875 55.6097 42.4489C55.2461 42.2102 54.8001 42.0909 54.2717 42.0909C53.8853 42.0909 53.5472 42.1534 53.2575 42.2784C52.9705 42.4034 52.7461 42.5753 52.5842 42.794C52.4251 43.0128 52.3455 43.2614 52.3455 43.5398C52.3455 43.7727 52.4009 43.973 52.5117 44.1406C52.6254 44.3054 52.7702 44.4432 52.9464 44.554C53.1225 44.6619 53.3072 44.7514 53.5004 44.8224C53.6935 44.8906 53.8711 44.946 54.033 44.9886L54.9194 45.2273C55.1467 45.2869 55.3995 45.3693 55.6779 45.4744C55.9592 45.5795 56.2276 45.723 56.4833 45.9048C56.7418 46.0838 56.9549 46.3139 57.1225 46.5952C57.2901 46.8764 57.3739 47.2216 57.3739 47.6307C57.3739 48.1023 57.2504 48.5284 57.0032 48.9091C56.7589 49.2898 56.4009 49.5923 55.9293 49.8168C55.4606 50.0412 54.891 50.1534 54.2205 50.1534C53.5955 50.1534 53.0543 50.0526 52.5969 49.8509C52.1424 49.6491 51.7844 49.3679 51.5231 49.0071C51.2646 48.6463 51.1183 48.2273 51.0842 47.75H52.1751C52.2035 48.0795 52.3143 48.3523 52.5075 48.5682C52.7035 48.7812 52.9506 48.9403 53.2489 49.0455C53.5501 49.1477 53.8739 49.1989 54.2205 49.1989C54.6239 49.1989 54.9862 49.1335 55.3072 49.0028C55.6282 48.8693 55.8825 48.6847 56.07 48.4489C56.2575 48.2102 56.3512 47.9318 56.3512 47.6136C56.3512 47.3239 56.2702 47.0881 56.1083 46.9062C55.9464 46.7244 55.7333 46.5767 55.4691 46.4631C55.2049 46.3494 54.9194 46.25 54.6126 46.1648L53.5387 45.858C52.8569 45.6619 52.3171 45.3821 51.9194 45.0185C51.5217 44.6548 51.3228 44.179 51.3228 43.5909C51.3228 43.1023 51.4549 42.6761 51.7191 42.3125C51.9862 41.946 52.3441 41.6619 52.793 41.4602C53.2447 41.2557 53.7489 41.1534 54.3058 41.1534C54.8683 41.1534 55.3683 41.2543 55.8058 41.456C56.2433 41.6548 56.5898 41.9276 56.8455 42.2741C57.104 42.6207 57.2404 43.0142 57.2546 43.4545H56.2319ZM58.9751 52.4545V43.4545H59.9467V44.4943H60.0661C60.1399 44.3807 60.2422 44.2358 60.3729 44.0597C60.5064 43.8807 60.6967 43.7216 60.9439 43.5824C61.1939 43.4403 61.532 43.3693 61.9581 43.3693C62.5092 43.3693 62.995 43.5071 63.4155 43.7827C63.8359 44.0582 64.1641 44.4489 64.3999 44.9545C64.6357 45.4602 64.7536 46.0568 64.7536 46.7443C64.7536 47.4375 64.6357 48.0384 64.3999 48.5469C64.1641 49.0526 63.8374 49.4446 63.4197 49.723C63.0021 49.9986 62.5206 50.1364 61.9751 50.1364C61.5547 50.1364 61.218 50.0668 60.9652 49.9276C60.7124 49.7855 60.5178 49.625 60.3814 49.446C60.245 49.2642 60.1399 49.1136 60.0661 48.9943H59.9808V52.4545H58.9751ZM59.9638 46.7273C59.9638 47.2216 60.0362 47.6577 60.1811 48.0355C60.326 48.4105 60.5376 48.7045 60.8161 48.9176C61.0945 49.1278 61.4354 49.233 61.8388 49.233C62.2592 49.233 62.6101 49.1222 62.8913 48.9006C63.1754 48.6761 63.3885 48.375 63.5305 47.9972C63.6754 47.6165 63.7479 47.1932 63.7479 46.7273C63.7479 46.267 63.6768 45.8523 63.5348 45.483C63.3956 45.1108 63.1839 44.8168 62.8999 44.6009C62.6186 44.3821 62.2649 44.2727 61.8388 44.2727C61.4297 44.2727 61.0859 44.3764 60.8075 44.5838C60.5291 44.7884 60.3189 45.0753 60.1768 45.4446C60.0348 45.8111 59.9638 46.2386 59.9638 46.7273ZM68.9467 50.1364C68.3558 50.1364 67.8374 49.9957 67.3913 49.7145C66.9482 49.4332 66.6016 49.0398 66.3516 48.5341C66.1044 48.0284 65.9808 47.4375 65.9808 46.7614C65.9808 46.0795 66.1044 45.4844 66.3516 44.9759C66.6016 44.4673 66.9482 44.0724 67.3913 43.7912C67.8374 43.5099 68.3558 43.3693 68.9467 43.3693C69.5376 43.3693 70.0547 43.5099 70.4979 43.7912C70.9439 44.0724 71.2905 44.4673 71.5376 44.9759C71.7876 45.4844 71.9126 46.0795 71.9126 46.7614C71.9126 47.4375 71.7876 48.0284 71.5376 48.5341C71.2905 49.0398 70.9439 49.4332 70.4979 49.7145C70.0547 49.9957 69.5376 50.1364 68.9467 50.1364ZM68.9467 49.233C69.3956 49.233 69.7649 49.1179 70.0547 48.8878C70.3445 48.6577 70.5589 48.3551 70.6982 47.9801C70.8374 47.6051 70.907 47.1989 70.907 46.7614C70.907 46.3239 70.8374 45.9162 70.6982 45.5384C70.5589 45.1605 70.3445 44.8551 70.0547 44.6222C69.7649 44.3892 69.3956 44.2727 68.9467 44.2727C68.4979 44.2727 68.1286 44.3892 67.8388 44.6222C67.549 44.8551 67.3345 45.1605 67.1953 45.5384C67.0561 45.9162 66.9865 46.3239 66.9865 46.7614C66.9865 47.1989 67.0561 47.6051 67.1953 47.9801C67.3345 48.3551 67.549 48.6577 67.8388 48.8878C68.1286 49.1179 68.4979 49.233 68.9467 49.233ZM76.2944 43.4545V44.3068H72.9023V43.4545H76.2944ZM73.891 41.8864H74.8967V48.125C74.8967 48.4091 74.9379 48.6222 75.0202 48.7642C75.1055 48.9034 75.2134 48.9972 75.3441 49.0455C75.4776 49.0909 75.6183 49.1136 75.766 49.1136C75.8768 49.1136 75.9677 49.108 76.0387 49.0966C76.1097 49.0824 76.1665 49.071 76.2092 49.0625L76.4137 49.9659C76.3455 49.9915 76.2504 50.017 76.1282 50.0426C76.006 50.071 75.8512 50.0852 75.6637 50.0852C75.3796 50.0852 75.1012 50.0241 74.8285 49.902C74.5586 49.7798 74.3342 49.5938 74.1552 49.3438C73.979 49.0938 73.891 48.7784 73.891 48.3977V41.8864ZM80.8583 41.2727V50H79.8015V42.3807H79.7504L77.6197 43.7955V42.7216L79.8015 41.2727H80.8583ZM83.3683 50V49.233L86.2489 46.0795C86.587 45.7102 86.8654 45.3892 87.0842 45.1165C87.3029 44.8409 87.4648 44.5824 87.57 44.3409C87.6779 44.0966 87.7319 43.8409 87.7319 43.5739C87.7319 43.267 87.658 43.0014 87.5103 42.777C87.3654 42.5526 87.1665 42.3793 86.9137 42.2571C86.6609 42.1349 86.3768 42.0739 86.0614 42.0739C85.7262 42.0739 85.4336 42.1435 85.1836 42.2827C84.9364 42.419 84.7447 42.6108 84.6083 42.858C84.4748 43.1051 84.408 43.3949 84.408 43.7273H83.4023C83.4023 43.2159 83.5202 42.767 83.756 42.3807C83.9918 41.9943 84.3129 41.6932 84.7191 41.4773C85.1282 41.2614 85.587 41.1534 86.0955 41.1534C86.6069 41.1534 87.06 41.2614 87.4549 41.4773C87.8498 41.6932 88.1594 41.9844 88.3839 42.3509C88.6083 42.7173 88.7205 43.125 88.7205 43.5739C88.7205 43.8949 88.6623 44.2088 88.5458 44.5156C88.4322 44.8196 88.2333 45.1591 87.9492 45.5341C87.668 45.9062 87.2773 46.3608 86.7773 46.8977L84.8171 48.9943V49.0625H88.8739V50H83.3683Z" fill="#333333"/>
<path d="M188 16.2238C188 16.6551 187.665 17.0022 187.25 17.0022H178.75C178.335 17.0022 178 16.6551 178 16.2238C178 15.9914 178.097 15.784 178.252 15.6416L182.476 11.2106C182.61 11.079 182.791 10.9978 182.99 10.9978C183.19 10.9978 183.37 11.079 183.505 11.2106L187.748 15.6416C187.903 15.784 188 15.9914 188 16.2238Z" fill="#555761"/>
<path d="M114 11.7762C114 11.3449 114.335 10.9978 114.75 10.9978H123.25C123.665 10.9978 124 11.3449 124 11.7762C124 12.0086 123.903 12.216 123.748 12.3584L119.524 16.7894C119.39 16.921 119.209 17.0022 119.01 17.0022C118.81 17.0022 118.63 16.921 118.495 16.7894L114.252 12.3584C114.097 12.216 114 12.0086 114 11.7762Z" fill="#555761"/>
<path d="M130.31 10.7273V18H129.429V11.6506H129.386L127.611 12.8295V11.9347L129.429 10.7273H130.31ZM132.401 18V17.3608L134.802 14.733C135.084 14.4252 135.316 14.1577 135.498 13.9304C135.68 13.7008 135.815 13.4853 135.903 13.2841C135.993 13.0805 136.038 12.8674 136.038 12.6449C136.038 12.3892 135.976 12.1679 135.853 11.9808C135.732 11.7938 135.567 11.6494 135.356 11.5476C135.145 11.4458 134.908 11.3949 134.646 11.3949C134.366 11.3949 134.122 11.4529 133.914 11.5689C133.708 11.6825 133.548 11.8423 133.435 12.0483C133.323 12.2543 133.268 12.4957 133.268 12.7727H132.43C132.43 12.3466 132.528 11.9725 132.724 11.6506C132.921 11.3286 133.188 11.0777 133.527 10.8977C133.868 10.7178 134.25 10.6278 134.674 10.6278C135.1 10.6278 135.478 10.7178 135.807 10.8977C136.136 11.0777 136.394 11.3203 136.581 11.6257C136.768 11.9311 136.862 12.2708 136.862 12.6449C136.862 12.9124 136.813 13.174 136.716 13.4297C136.621 13.683 136.455 13.9659 136.219 14.2784C135.984 14.5885 135.659 14.9673 135.242 15.4148L133.609 17.1619V17.2188H136.989V18H132.401ZM141.396 10.7273H142.447L144.919 16.7642H145.004L147.476 10.7273H148.527V18H147.703V12.4744H147.632L145.359 18H144.564L142.291 12.4744H142.22V18H141.396V10.7273ZM150.293 18V10.7273H151.131V13.4119H151.202C151.263 13.3172 151.349 13.1965 151.458 13.0497C151.569 12.9006 151.727 12.768 151.933 12.652C152.142 12.5336 152.423 12.4744 152.779 12.4744C153.238 12.4744 153.643 12.5893 153.993 12.8189C154.343 13.0485 154.617 13.3741 154.813 13.7955C155.01 14.2169 155.108 14.714 155.108 15.2869C155.108 15.8646 155.01 16.3653 154.813 16.7891C154.617 17.2105 154.345 17.5372 153.997 17.7692C153.649 17.9988 153.247 18.1136 152.793 18.1136C152.442 18.1136 152.162 18.0556 151.951 17.9396C151.74 17.8213 151.578 17.6875 151.465 17.5384C151.351 17.3868 151.263 17.2614 151.202 17.1619H151.102V18H150.293ZM151.117 15.2727C151.117 15.6847 151.177 16.0481 151.298 16.3629C151.419 16.6754 151.595 16.9205 151.827 17.098C152.059 17.2732 152.343 17.3608 152.679 17.3608C153.03 17.3608 153.322 17.2685 153.556 17.0838C153.793 16.8968 153.971 16.6458 154.089 16.331C154.21 16.0137 154.27 15.661 154.27 15.2727C154.27 14.8892 154.211 14.5436 154.093 14.2358C153.977 13.9257 153.8 13.6806 153.563 13.5007C153.329 13.3184 153.034 13.2273 152.679 13.2273C152.338 13.2273 152.052 13.3137 151.82 13.4865C151.588 13.657 151.413 13.8961 151.294 14.2038C151.176 14.5092 151.117 14.8655 151.117 15.2727ZM158.961 10.3864L156.617 19.0938H155.85L158.194 10.3864H158.961ZM163.818 13.767L163.065 13.9801C163.018 13.8546 162.948 13.7327 162.856 13.6143C162.766 13.4936 162.643 13.3942 162.487 13.3161C162.33 13.2379 162.13 13.1989 161.886 13.1989C161.553 13.1989 161.274 13.2758 161.052 13.4297C160.832 13.5812 160.722 13.7741 160.722 14.0085C160.722 14.2169 160.797 14.3814 160.949 14.5021C161.1 14.6229 161.337 14.7235 161.659 14.804L162.469 15.0028C162.956 15.1212 163.32 15.3023 163.559 15.5462C163.798 15.7876 163.918 16.099 163.918 16.4801C163.918 16.7926 163.828 17.072 163.648 17.3182C163.47 17.5644 163.222 17.7585 162.902 17.9006C162.582 18.0426 162.211 18.1136 161.787 18.1136C161.231 18.1136 160.77 17.9929 160.406 17.7514C160.041 17.5099 159.81 17.1572 159.713 16.6932L160.509 16.4943C160.584 16.7879 160.728 17.008 160.938 17.1548C161.151 17.3016 161.429 17.375 161.773 17.375C162.163 17.375 162.473 17.2921 162.703 17.1264C162.935 16.9583 163.051 16.7571 163.051 16.5227C163.051 16.3333 162.985 16.1747 162.852 16.0469C162.72 15.9167 162.516 15.8196 162.241 15.7557L161.332 15.5426C160.833 15.4242 160.466 15.2408 160.232 14.9922C160 14.7412 159.884 14.4276 159.884 14.0511C159.884 13.7434 159.97 13.4711 160.143 13.2344C160.318 12.9976 160.556 12.8118 160.857 12.6768C161.16 12.5419 161.503 12.4744 161.886 12.4744C162.426 12.4744 162.85 12.5928 163.158 12.8295C163.468 13.0663 163.688 13.3788 163.818 13.767Z" fill="#333333" fill-opacity="0.75"/>
<path d="M194.125 18.0994C193.59 18.0994 193.134 17.9538 192.758 17.6626C192.381 17.3691 192.094 16.9441 191.895 16.3878C191.696 15.8291 191.597 15.1544 191.597 14.3636C191.597 13.5777 191.696 12.9065 191.895 12.3501C192.096 11.7914 192.385 11.3653 192.761 11.0717C193.14 10.7758 193.595 10.6278 194.125 10.6278C194.655 10.6278 195.109 10.7758 195.485 11.0717C195.864 11.3653 196.153 11.7914 196.352 12.3501C196.553 12.9065 196.653 13.5777 196.653 14.3636C196.653 15.1544 196.554 15.8291 196.355 16.3878C196.156 16.9441 195.869 17.3691 195.492 17.6626C195.116 17.9538 194.66 18.0994 194.125 18.0994ZM194.125 17.3182C194.655 17.3182 195.067 17.0625 195.361 16.5511C195.654 16.0398 195.801 15.3106 195.801 14.3636C195.801 13.7339 195.734 13.1977 195.599 12.755C195.466 12.3123 195.274 11.9749 195.023 11.7429C194.775 11.5109 194.475 11.3949 194.125 11.3949C193.599 11.3949 193.189 11.6541 192.893 12.1726C192.597 12.6887 192.449 13.419 192.449 14.3636C192.449 14.9934 192.515 15.5284 192.648 15.9688C192.78 16.4091 192.971 16.7441 193.219 16.9737C193.47 17.2034 193.772 17.3182 194.125 17.3182ZM200.943 18V10.7273H203.486C203.992 10.7273 204.41 10.8149 204.739 10.9901C205.068 11.1629 205.313 11.3961 205.474 11.6896C205.635 11.9808 205.716 12.304 205.716 12.6591C205.716 12.9716 205.66 13.2296 205.549 13.4332C205.44 13.6368 205.296 13.7978 205.116 13.9162C204.938 14.0346 204.745 14.1222 204.537 14.179V14.25C204.759 14.2642 204.983 14.3423 205.208 14.4844C205.433 14.6264 205.621 14.83 205.773 15.0952C205.924 15.3603 206 15.6847 206 16.0682C206 16.4328 205.917 16.7607 205.751 17.0518C205.586 17.343 205.324 17.5739 204.967 17.7443C204.609 17.9148 204.144 18 203.571 18H200.943ZM201.824 17.2188H203.571C204.146 17.2188 204.555 17.1075 204.796 16.8849C205.04 16.66 205.162 16.3878 205.162 16.0682C205.162 15.822 205.099 15.5947 204.974 15.3864C204.848 15.1757 204.67 15.0076 204.438 14.8821C204.205 14.7543 203.931 14.6903 203.614 14.6903H201.824V17.2188ZM201.824 13.9233H203.457C203.723 13.9233 203.962 13.8712 204.175 13.767C204.39 13.6629 204.561 13.5161 204.686 13.3267C204.814 13.1373 204.878 12.9148 204.878 12.6591C204.878 12.3395 204.767 12.0684 204.544 11.8459C204.321 11.621 203.969 11.5085 203.486 11.5085H201.824V13.9233ZM209.904 10.3864L207.561 19.0938H206.794L209.137 10.3864H209.904ZM214.762 13.767L214.009 13.9801C213.961 13.8546 213.892 13.7327 213.799 13.6143C213.709 13.4936 213.586 13.3942 213.43 13.3161C213.274 13.2379 213.074 13.1989 212.83 13.1989C212.496 13.1989 212.218 13.2758 211.995 13.4297C211.775 13.5812 211.665 13.7741 211.665 14.0085C211.665 14.2169 211.741 14.3814 211.892 14.5021C212.044 14.6229 212.28 14.7235 212.602 14.804L213.412 15.0028C213.9 15.1212 214.263 15.3023 214.502 15.5462C214.741 15.7876 214.861 16.099 214.861 16.4801C214.861 16.7926 214.771 17.072 214.591 17.3182C214.414 17.5644 214.165 17.7585 213.845 17.9006C213.526 18.0426 213.154 18.1136 212.73 18.1136C212.174 18.1136 211.713 17.9929 211.349 17.7514C210.984 17.5099 210.753 17.1572 210.656 16.6932L211.452 16.4943C211.528 16.7879 211.671 17.008 211.882 17.1548C212.095 17.3016 212.373 17.375 212.716 17.375C213.107 17.375 213.417 17.2921 213.646 17.1264C213.878 16.9583 213.994 16.7571 213.994 16.5227C213.994 16.3333 213.928 16.1747 213.796 16.0469C213.663 15.9167 213.459 15.8196 213.185 15.7557L212.276 15.5426C211.776 15.4242 211.409 15.2408 211.175 14.9922C210.943 14.7412 210.827 14.4276 210.827 14.0511C210.827 13.7434 210.913 13.4711 211.086 13.2344C211.261 12.9976 211.499 12.8118 211.8 12.6768C212.103 12.5419 212.446 12.4744 212.83 12.4744C213.369 12.4744 213.793 12.5928 214.101 12.8295C214.411 13.0663 214.631 13.3788 214.762 13.767Z" fill="#333333" fill-opacity="0.75"/>
<defs>
<filter id="filter0_d_216_27" x="0.5" y="0.5" width="27" height="27" filterUnits="userSpaceOnUse" color-interpolation-filters="sRGB">
<feFlood flood-opacity="0" result="BackgroundImageFix"/>
<feColorMatrix in="SourceAlpha" type="matrix" values="0 0 0 0 0 0 0 0 0 0 0 0 0 0 0 0 0 0 127 0" result="hardAlpha"/>
<feOffset/>
<feGaussianBlur stdDeviation="2"/>
<feComposite in2="hardAlpha" operator="out"/>
<feColorMatrix type="matrix" values="0 0 0 0 0 0 0 0 0 0.58 0 0 0 0 1 0 0 0 0.25 0"/>
<feBlend mode="normal" in2="BackgroundImageFix" result="effect1_dropShadow_216_27"/>
<feBlend mode="normal" in="SourceGraphic" in2="effect1_dropShadow_216_27" result="shape"/>
</filter>
<filter id="filter1_d_216_27" x="6" y="8" width="16.5" height="14" filterUnits="userSpaceOnUse" color-interpolation-filters="sRGB">
<feFlood flood-opacity="0" result="BackgroundImageFix"/>
<feColorMatrix in="SourceAlpha" type="matrix" values="0 0 0 0 0 0 0 0 0 0 0 0 0 0 0 0 0 0 127 0" result="hardAlpha"/>
<feOffset dy="2"/>
<feComposite in2="hardAlpha" operator="out"/>
<feColorMatrix type="matrix" values="0 0 0 0 0 0 0 0 0 0 0 0 0 0 0 0 0 0 0.25 0"/>
<feBlend mode="normal" in2="BackgroundImageFix" result="effect1_dropShadow_216_27"/>
<feBlend mode="normal" in="SourceGraphic" in2="effect1_dropShadow_216_27" result="shape"/>
</filter>
<filter id="filter2_d_216_27" x="1" y="32" width="27" height="27" filterUnits="userSpaceOnUse" color-interpolation-filters="sRGB">
<feFlood flood-opacity="0" result="BackgroundImageFix"/>
<feColorMatrix in="SourceAlpha" type="matrix" values="0 0 0 0 0 0 0 0 0 0 0 0 0 0 0 0 0 0 127 0" result="hardAlpha"/>
<feOffset/>
<feGaussianBlur stdDeviation="2"/>
<feComposite in2="hardAlpha" operator="out"/>
<feColorMatrix type="matrix" values="0 0 0 0 0 0 0 0 0 0.58 0 0 0 0 1 0 0 0 0.25 0"/>
<feBlend mode="normal" in2="BackgroundImageFix" result="effect1_dropShadow_216_27"/>
<feBlend mode="normal" in="SourceGraphic" in2="effect1_dropShadow_216_27" result="shape"/>
</filter>
<linearGradient id="paint0_linear_216_27" x1="11.3396" y1="5.02568" x2="11.3396" y2="23.4918" gradientUnits="userSpaceOnUse">
<stop stop-color="#4DB9DB"/>
<stop offset="1" stop-color="#2382B7"/>
</linearGradient>
<linearGradient id="paint1_linear_216_27" x1="13.7569" y1="5.21527" x2="13.7569" y2="22.7222" gradientUnits="userSpaceOnUse">
<stop stop-color="white"/>
<stop offset="0.507761" stop-color="white" stop-opacity="0.235294"/>
<stop offset="0.834566" stop-color="white" stop-opacity="0.156863"/>
<stop offset="1" stop-color="white" stop-opacity="0.392157"/>
</linearGradient>
<linearGradient id="paint2_linear_216_27" x1="11.8396" y1="36.5257" x2="11.8396" y2="54.9918" gradientUnits="userSpaceOnUse">
<stop stop-color="#656565"/>
<stop offset="1" stop-color="#A8A8A8"/>
</linearGradient>
<linearGradient id="paint3_linear_216_27" x1="14.2569" y1="36.7153" x2="14.2569" y2="54.2222" gradientUnits="userSpaceOnUse">
<stop stop-color="white"/>
<stop offset="0.507761" stop-color="white" stop-opacity="0.235294"/>
<stop offset="0.834566" stop-color="white" stop-opacity="0.156863"/>
<stop offset="1" stop-color="white" stop-opacity="0.392157"/>
</linearGradient>
</defs>
</svg>
